<?xml version="1.0" encoding="UTF-8"?>
<svg id="Layer_1" data-name="Layer 1" xmlns="http://www.w3.org/2000/svg" viewBox="0 0 52.54 37.55">
  <defs>
    <style>
      .cls-1 {
        stroke: #fff;
        stroke-miterlimit: 10;
      }

      .cls-1, .cls-2 {
        fill: #fff;
      }

      .cls-3 {
        fill: #1f1f1f;
      }
    </style>
  </defs>
  <g id="Camada_2" data-name="Camada 2">
    <rect class="cls-1" x=".5" y=".5" width="51.54" height="36.55"/>
    <path class="cls-2" d="M51.89.65v36.25H.65V.65h51.24M52,.5H.5v36.55h51.5V.5Z"/>
    <path class="cls-3" d="M24.6,11.44c0-.08-.07-.15-.15-.15s-.15.07-.15.15h0c0,.08.07.15.15.15s.15-.07.15-.15Z"/>
    <circle class="cls-3" cx="26.9" cy="11.73" r=".18"/>
    <path class="cls-3" d="M18.79,14.11c.3.13.65-.01.77-.31.03-.07.04-.14.05-.21.43,0,.59-.3.55-.66h-.16c0,.28-.24.49-.51.49-.02,0-.04,0-.07,0-.04.33-.34.57-.68.53-.02,0-.05,0-.07-.01-.08.2-.31.3-.51.22-.05-.02-.1-.05-.13-.09-.16-.15-.17-.4-.02-.57.07-.07.15-.11.25-.12,0-.39.37-.64.92-.61.11-.18.31-.28.51-.25v-.11c-.24-.04-.43-.22-.48-.46-.35.07-.68-.15-.76-.5,0-.05-.01-.1-.01-.14-.19-.09-.28-.31-.19-.5.01-.02.02-.05.04-.07.14-.16.39-.18.55-.04.01.01.03.03.04.04.35-.17.77-.02.93.33.05.11.07.22.07.34.14,0,.28.05.39.14.13.16.21.35.23.55.04.23.16.43.34.58.26.22.64.18.86-.07.08-.1.13-.21.14-.34.34.06.66-.17.72-.5.02-.12,0-.24-.04-.35.27-.2.32-.57.13-.84-.05-.07-.11-.12-.18-.16-.3-.19-.69-.1-.88.2-.01.02-.03.04-.04.06-.34-.08-.68.13-.76.47-.04.15-.01.31.06.44l.18.08c-.12-.31.04-.66.35-.77.09-.03.19-.05.28-.04.07-.22.31-.34.53-.26s.34.31.26.53c-.03.08-.08.15-.15.2.05.36-.2.68-.55.73-.03,0-.06,0-.09,0,.02.27-.19.5-.46.52-.13,0-.25-.03-.35-.12-.2-.16-.23-.45-.07-.65.06-.07.14-.13.24-.15l-.18-.08c-.13.02-.24.12-.27.25.06-.29-.14-.58-.43-.63-.04,0-.09-.01-.13,0,.02-.4-.29-.74-.68-.75-.12,0-.23.02-.34.06-.22-.24-.59-.26-.83-.05-.02.01-.03.03-.05.05-.2.22-.18.57.05.76.05.04.1.07.16.1-.07.33.14.67.47.74.09.02.18.02.27,0,.03.12.12.22.24.25-.12.02-.21.09-.26.2-.35-.13-.74.04-.88.4-.03.09-.05.18-.04.27-.31.08-.49.4-.41.71.03.11.09.21.18.29.21.22.57.23.79.02.04-.04.07-.08.1-.13Z"/>
    <path class="cls-3" d="M23.23,14.62c.05-.19-.19-.21-.22,0-.1.26-.26.5-.47.68l.08.08c.27-.19.49-.45.61-.76Z"/>
    <path class="cls-3" d="M18.89,11l-.09.09c.3.34.63.64,1,.89l.11-.14c-.3-.33-.64-.61-1.02-.84Z"/>
    <path class="cls-3" d="M18.5,13.58l.08.1c.31-.17.6-.39.85-.64l-.06-.04c-.32.15-.61.34-.87.58Z"/>
    <path class="cls-3" d="M22.07,11l-.07-.08c-.29.31-.54.64-.76,1l.1.07c.3-.28.55-.62.73-.99Z"/>
    <path class="cls-3" d="M30.61,12.32c.19-.28.31-.6.36-.93h.31c-.14.26-.24.55-.28.84,0,.16,0,.19.12.25s.35,0,.53-.11c.23-.22.43-.47.61-.73l.26.22c-.33.2-.43.42-.33.57.06.06.14.1.23.1.13,0,.25-.03.37-.06.1-.02.2-.05.29-.09v.35c-.93.02-1.83.38-2.52,1l.14.2c.04-.07.09-.13.15-.19.58,0,1.15.14,1.67.38l.11-.71c-.22,0-.57-.09-.69-.26.44-.12.89-.17,1.35-.15v-.88c-.15.09-.31.16-.48.21-.2.07-.39.09-.44,0s.22-.27.51-.42l-.65-.54c-.17.26-.35.51-.54.75-.17.17-.33.28-.43.21s-.05-.14,0-.28c.1-.28.24-.55.41-.79l-.89-.08c-.04.69-.42,1.32-1,1.7l.17.17c.26-.2.49-.45.66-.73ZM32.4,13.63v.27c-.4-.19-.84-.29-1.28-.3.19-.13.39-.24.61-.32.18.18.42.31.67.35Z"/>
    <path class="cls-3" d="M33.23,19c-.71-1.73-1.56-3.4-2.53-5l-.14-.2c-.2-.28-.42-.55-.66-.8l-.17-.17c-.44-.42-.92-.84-1.3-1.14s-.56-.87-1.31-.87c-.46-.02-.87.28-1,.72-.02.11-.06.22-.12.31l-.43.51h.51l-.26.43c.15,0,1-.21,1.22.07s.07.72.48,1.51h0c-.79-.1-1.59-.15-2.39-.13h-1.06c.3-.29.67-.5,1.08-.61l-.36-.2.4-.23-.56-.2c-.11-.09-.23-.16-.37-.2.27-.54.77-.94,1.36-1.09l-.4-.16.41-.23-.63-.2c-.13-.18-.35-.28-.57-.28-.58,0-.83.51-1.06,1-.08.2-.23.36-.41.47-.57.38-1.09.83-1.57,1.32-.4-.32-.74-.7-1-1.14-.05.08-.09.16-.12.25.05.06.74.76,1,1.05l-.06.07c-.4.07-.81.1-1.22.09l-.14.24,1.15-.19-.26.33c-.91.11-1.51.29-1.51.63v.17c.01.11-.05.21-.15.26-.07,0-.07.07,0,.11.06.09.12.18.16.28-.01.08-.06.15-.12.2v.13l.26.56h0c0,.19.05.37.15.53.06.06.35.44.56.64-.41.17-.83.3-1.27.39-.09.02-.18.06-.25.12-.08.13-.12.27-.13.42-.01.14-.01.27,0,.41.02.27.09.54.21.79.09.21.25.37.45.47.07-.02.15-.02.22,0,.26,0,.5.11.66.31,0,.06.12.07.23.07.27-.01.54-.07.79-.18.05-.05.21-.15.37-.27.43-.37.9-.71,1.39-1,.27.15.57.24.88.25.05,0,.1,0,.15,0,.11,0,.24-.07.42-.1.25-.05.51-.09.77-.11h1.31c.2.01.41.01.61,0,.32-.09.63-.2.93-.33.45-.23.88-.51,1.28-.83.06-.05.11-.11.15-.17h0v-.55l.26-.28h0c-.06-.25-.07-.51-.05-.77l-.19-.09c0,.36-.11.7-.3,1-.37.05-.71.2-1,.43h.11c.18-.11.39-.17.6-.17.19,0,.28.05.28.11-.01.06-.03.11-.05.16-.02.04-.04.08-.07.11-.26.29-.57.54-.92.73-.27.14-.55.26-.84.34l-.36.1h-1.26c-.52,0-1.04.05-1.55.13-.1.04-.2.07-.3.08-.29-.03-.58-.11-.84-.24l-.19.08c-.15.08-.49.55-.69.41-.1.21-.54.4-.69.62,0-.11.19-.85.21-1,0-.03,0-.05,0-.08-.22-.25-.53-.42-.86-.48h-.16l-.4-.12-.37.12.43.08-.54.36c.09,0,.67-.2.72-.21.06-.03.12-.03.18,0,.15.03.29.07.43.12.1.06.19.15.25.25,0,.08,0,.17,0,.25.01.11.01.22,0,.33-.05.19-.12.37-.22.54-.04.08-.11.15-.2.17-.13.06-.27.09-.42.09-.11,0-.18,0-.23-.06-.21-.26-.55-.38-.88-.32-.28-.23-.45-.58-.46-.94.02-.25.08-.49.17-.72.51-.12,1-.28,1.47-.5.16-.04.33-.06.49-.08.49.08.94.34,1.26.72.08-.14.23-.21.39-.2.34,0,.54.31.64.63l.18-.13c-.04-.2-.13-.39-.28-.53-.14-.13-.33-.21-.52-.22h-.29c-.2-.01-.38-.1-.52-.24-.25-.17-.53-.29-.83-.33-.16,0-.24.07-.38.07-.15,0-.3-.08-.37-.21-.05-.05-.25-.23-.31-.31-.05-.09-.09-.2-.11-.3l-.24-.18.25.18.19.19.25.15c.12.07.25.13.39.18.14.02.27.02.41,0,.22-.03.43,0,.64.06.14.06.15.2.25.24.29.06.59.09.89.08.44-.03.87-.1,1.29-.22l-.15-.18c-.39.06-.79.1-1.19.11-.42,0-.82-.07-.82-.24.03-.19.19-.32.38-.3.25.03.5.09.74.18.05.03.11.03.16,0l.15-.08c-.38-.17-.77-.29-1.18-.35-.1-.01-.2.03-.26.12-.21.18-.49.27-.77.24-.21,0-.42-.02-.62-.07-.18-.09-.35-.19-.52-.3-.19-.14-.36-.3-.49-.5-.04-.05-.06-.12-.06-.18v-.13s.08.09.13.13c.24.23.54.38.87.44.09.01.18.01.27,0,.13,0,.26-.06.35-.15l-.13-.15h-.18c-.5,0-.96-.25-1.23-.67v-.09c0-.06,0-.11,0-.17l.16.13c.18.11.52.27.59.31.14-.04.27-.09.4-.16.12-.06.25-.1.39-.1.4.05.79.18,1.13.39l.26-.1c-.41-.28-.89-.46-1.38-.53-.24,0-.46.18-.62.18s-.76-.28-.76-.5.36-.28.95-.35c-.1.15-.2.3-.29.46l.15.08c.71-1.07,1.62-1.99,2.68-2.72.21-.11.37-.29.46-.51.25-.51.48-.9.89-.9.18,0,.35.1.46.24l.29.09-.3.2.31.13c-.55.16-.99.55-1.22,1.07-.36.06-.65.31-.77.65-.09.2-.24.27-.46.42l-1.74,1.22h.24l1.64-1.07c.22-.12.41-.3.55-.52.14-.3.3-.52.62-.52.17,0,.33.07.45.19l.28.09-.3.19.25.16c-.78.27-1.34.95-1.45,1.77h.19c.08-.32.2-.63.37-.91h1.28c.86-.03,1.72.03,2.57.19h0c.2.32.43.62.67.91l-.21.45.15.18.32-.68c-.33-.36-.61-.76-.86-1.18-.46-.83-.28-1.26-.56-1.65s-1-.19-1-.19l.28-.39-.51.11.23-.26c.03-.06.06-.12.07-.18.08-.39.41-.67.81-.68.57,0,.73.44,1.12.78.71.59,1.38,1.23,2,1.91.79,1.13,1.47,2.35,2,3.63-.91-.58-1.67-1.35-2.23-2.27h-.22c.64,1.11,1.56,2.03,2.67,2.68.19.42.36.78.49,1-1.11-.68-2.12-1.52-3-2.48-.74-.84-1.36-1.8-1.82-2.82-.11-.28-.34-.18-.22.1.42.91.96,1.77,1.61,2.54-.16-.06-.35-.16-.46-.21-.06.1-.13.2-.22.28-.08.08-.16.16-.25.23-.07.07-.13.07-.18,0-.04-.06-.08-.13-.09-.21l-.15-.18c-.07-.1-.43-.59-.54-.76-.1-.19-.28-.32-.49-.34-.28,0-.38.32-.41.61l.19-.08c.05-.18.14-.28.22-.28.08.02.13.08.14.16-.05.12-.08.24-.11.36l.19.06c0-.12.04-.23.09-.34.03.02.06.05.08.08l.21.35c.09.17.2.38.3.55l.14.2c.03.06.08.12.14.15.04.01.08.01.12,0,.1,0,.19-.04.26-.11.16-.15.3-.32.43-.49l.13.06.19.09.38.17c.28.31.59.62.91.91l.5,3c0,.26.24.3.38.16.12-.15.25-.29.39-.41.1-.07.27,0,.46,0s.29,0,.18-.35l-.41-1.23c.35.25.71.48,1.09.68l-.09-.26ZM31.7,20.25c-.11.14-.24.16-.27,0l-.43-2.62.41.34h0l.43,1.93c.01.18-.03.22-.14.35ZM32.29,19.99c-.17,0-.24,0-.27-.2l-.41-1.64.41.31h0l.45,1.36c.03.11,0,.18-.18.18h0Z"/>
    <path class="cls-3" d="M21.59,16.49c-.05.05-.1.09-.16.13l-.17.09c-.05.01-.11.01-.16,0-.04.01-.08.01-.12,0l-.23.14c.08.05.18.08.28.07.14,0,.29-.03.42-.09.17-.07.33-.16.48-.26.13-.09.29-.14.45-.14.17.02.33.08.47.17.22.12.46.18.7.2.15,0,.31-.03.46-.06.31-.07.61-.16.91-.26l-.1-.18c-.2.06-.4.12-.61.16-.19.05-.38.08-.58.1-.1.01-.21.01-.31,0-.18-.05-.34-.11-.34-.25,0-.1.06-.19.16-.22.21-.06.43-.08.65-.07l.14-.17c-.13-.01-.25-.01-.38,0-.18,0-.35.03-.52.09-.13.05-.25.14-.33.26,0,0-.07.08-.11.08s-.22-.06-.36-.06h-.17c-.18-.03-.36-.09-.51-.19-.1-.07-.22-.11-.34-.11-.06-.01-.13-.01-.19,0-.11.04-.22.11-.31.19l.11.07c.11-.05.23-.08.35-.08.1,0,.2.03.28.1.05.03.1.07.15.11.05.05.05.12,0,.17,0,0,0,0-.01.01Z"/>
    <path class="cls-3" d="M26,15.77h-1.18c-.24,0-.48.08-.68.22-.12.08-.22.18-.31.29h.19c.2-.16.45-.26.71-.27l.57.06c.15,0,.3,0,.45,0,.32-.02.63-.12.9-.29l-.05-.2c-.19.1-.39.16-.6.19Z"/>
    <path class="cls-3" d="M24.88,17.06c.29,0,.4,0,.5.2.05.11.15.18.27.19.1,0,.2-.04.29-.09.14-.06.4-.19.56-.28l.53-.26c-.05.12-.11.23-.18.34l-.1.11-.25.2c-.21.16-.42.3-.65.43l.08.14.42-.23c.18-.11.35-.21.49-.31.11-.07.2-.16.29-.25.04-.04.07-.09.1-.15.08-.18.15-.37.19-.57l-.14-.08-.28.15-.53.23-.37.17c-.1.05-.2.08-.31.1-.2,0-.34-.19-.41-.36-.21.05-.43.09-.65.11-.4.09-.8.24-1.17.42l.27.12c.31-.21.68-.32,1.05-.33Z"/>
    <path class="cls-3" d="M25.43,16.32h-.1c0,.06.05.22.05.22.18.04.37.06.55.06.17,0,.34-.02.5-.08.1-.03.2-.09.28-.15.05-.05.11-.1.17-.14.08-.02.17-.02.25,0,.14,0,.28.04.4.1v-.21c-.17-.07-.35-.11-.53-.12-.17-.02-.34.04-.46.16-.17.16-.4.24-.64.22l-.47-.06Z"/>
    <path class="cls-3" d="M27.4,17.57c.06-.07.12-.13.19-.19.24-.11.51-.15.78-.12l.15-.21c-.34-.02-.67.01-1,.1-.07.04-.14.1-.2.16-.19.2-.38.45-.6.67-.29.24-.63.4-1,.49,0,0-.48-.67-.53-.76s0-.06-.1-.06c-.08,0-.16.02-.23.05-.29.11-.88.4-.93.42-.08.04-.16.06-.25.07-.19-.01-.38-.06-.56-.14l-.18.08c.24.12.48.21.74.28.1.04.22.04.32,0,.18-.1.59-.32.73-.37s.19,0,.25,0l.19.17c.08.08.13.18.17.29,0,.06,0,.1-.06.12-.23.06-.47.09-.71.09-.14,0-.27-.01-.4-.05l.2.21h1.17c.23-.07.89-.34,1.3-.51l.79.16c.16-.04.31-.11.45-.19.13-.1.24-.21.33-.34l-.13-.07c-.2.21-.48.34-.77.36-.18,0-.35-.06-.49-.17.14-.17.26-.35.38-.54Z"/>
    <circle class="cls-3" cx="24.11" cy="13.36" r=".15"/>
    <path class="cls-3" d="M30.27,22.31v-.16c0-.08.06-.14.14-.15l2.33-.23c.1,0,.19.09.19.19v.29c0,.1-.07.18-.17.19,0,0-.01,0-.02,0h-2.34c-.07,0-.13-.06-.13-.13h0ZM28.73,22.92h-.52v-.87c0-.12-.09-.22-.21-.23,0,0,0,0-.01,0h-.33c-.13,0-.23.1-.23.23v.87h-.16c-.09,0-.16.07-.16.16v.24c0,.09.07.16.16.16h.16v1.41c-.01.51.39.93.9.94.02,0,.03,0,.05,0h.31c.1,0,.18-.08.18-.18h0v-.25c0-.1-.08-.18-.18-.18h0c-.22.02-.42-.14-.44-.36,0-.02,0-.05,0-.07v-1.31h.52c.09,0,.16-.07.16-.16v-.24c0-.09-.07-.16-.15-.17-.02,0-.03,0-.05,0ZM29.61,21.82h-.34c-.12,0-.22.11-.22.23v3.55c0,.12.1.22.22.23h.34c.13,0,.23-.1.23-.23v-3.55c0-.13-.1-.23-.23-.23ZM24.4,24.33c.02.13-.07.24-.2.26-.02,0-.04,0-.05,0h-1.89c.04.39.39.67.78.63.19-.02.37-.12.49-.27.04-.06.11-.1.18-.1h.45c.07,0,.13.05.14.12,0,.02,0,.03,0,.05-.21.56-.76.91-1.35.86-.81,0-1.47-.66-1.47-1.47,0-.03,0-.05,0-.08-.04-.79.57-1.47,1.37-1.51.03,0,.07,0,.1,0h0c.78-.03,1.43.58,1.46,1.36,0,.05,0,.1,0,.15ZM23.61,24c-.05-.37-.38-.64-.76-.59-.31.04-.55.28-.59.59h1.35ZM32.76,24.59h-1.89c.02.36.32.65.68.64.23.02.46-.09.59-.28.04-.06.11-.1.19-.1h.44c.08,0,.14.06.14.14,0,.01,0,.02,0,.03-.21.56-.76.91-1.35.86-.82,0-1.48-.66-1.48-1.48,0-.02,0-.05,0-.07-.04-.79.57-1.47,1.37-1.51.03,0,.07,0,.1,0h0c.78-.02,1.43.59,1.45,1.37,0,.05,0,.1,0,.14.02.13-.07.24-.2.26-.01,0-.03,0-.04,0ZM32.23,24c-.05-.34-.34-.59-.68-.58-.34,0-.63.24-.67.58h1.35ZM27,22.29v-.29c0-.09-.08-.17-.17-.17h-6.16c-.14,0-.25.12-.25.26v2.4s-1.3-2.35-1.36-2.49c-.09-.13-.24-.21-.4-.21h-.5c-.14,0-.25.11-.26.25v3.52c0,.14.12.26.26.26h.32c.14,0,.25-.12.25-.26v-2.47s1.27,2.42,1.37,2.51c.08.14.23.23.39.23h.51c.14,0,.25-.12.25-.26v-3.11h5.55c.1.01.19-.06.2-.16,0,0,0,0,0-.01ZM26.41,24.1l-.7-.17c-.17-.05-.32-.1-.32-.24s.2-.3.45-.3c.21-.02.42.08.53.27,0,.08.1.09.2.09h.36c.07,0,.13-.06.13-.13,0-.42-.5-.8-1.22-.8s-1.23.35-1.23.91.34.69.76.8l.67.18c.17,0,.33.09.33.24s-.25.31-.51.31c-.23.02-.46-.09-.58-.29,0-.11-.12-.12-.23-.12h-.37c-.08,0-.14.06-.14.14h0c0,.42.55.85,1.32.85.54,0,1.29-.22,1.29-.95-.03-.41-.36-.75-.77-.79h.03Z"/>
  </g>
</svg>